<svg xmlns="http://www.w3.org/2000/svg" version="1.1" xmlns:xlink="http://www.w3.org/1999/xlink" xmlns:svgjs="http://svgjs.com/svgjs" width="1440" height="560" preserveAspectRatio="none" viewBox="0 0 1440 560"><g clip-path="url(&quot;#SvgjsClipPath1003&quot;)" fill="none"><circle r="93.335" cx="91.39" cy="-20.44" stroke="#f5f5dc" stroke-opacity="1" stroke-width="2"></circle><circle r="93.335" cx="371.79" cy="404.67" stroke="#f5f5dc" stroke-opacity="1" stroke-width="2"></circle><circle r="93.335" cx="831.21" cy="694.67" stroke="#f5f5dc" stroke-opacity="1" stroke-width="2"></circle><circle r="163.155" cx="1167.99" cy="342.43" stroke="#f5f5dc" stroke-opacity="1" stroke-width="2"></circle><circle r="86.81" cx="412.14" cy="415.45" stroke="#f5f5dc" stroke-opacity="1" stroke-width="2"></circle><circle r="74.76" cx="720.38" cy="453.24" stroke="#f5f5dc" stroke-opacity="1" stroke-width="2"></circle><circle r="69.02" cx="268.12" cy="525.69" stroke="#f5f5dc" stroke-opacity="1" stroke-width="2"></circle><circle r="163.67" cx="1041.8" cy="69.27" stroke="#f5f5dc" stroke-opacity="1" stroke-width="2"></circle><circle r="159.54" cx="861.49" cy="339.49" stroke="#f5f5dc" stroke-opacity="1" stroke-width="2"></circle><circle r="101.94" cx="791.48" cy="416" stroke="#f5f5dc" stroke-opacity="1" stroke-width="2"></circle><circle r="184.42" cx="230.27" cy="378.68" stroke="#f5f5dc" stroke-opacity="1" stroke-width="2"></circle><circle r="109.13" cx="100.03" cy="292.91" stroke="#f5f5dc" stroke-opacity="1" stroke-width="2"></circle><circle r="151.97" cx="333.65" cy="484.07" stroke="#f5f5dc" stroke-opacity="1" stroke-width="2"></circle><circle r="177.7" cx="471.93" cy="126.66" stroke="#f5f5dc" stroke-opacity="1" stroke-width="2"></circle><circle r="176.58" cx="288.84" cy="206.47" stroke="#f5f5dc" stroke-opacity="1" stroke-width="2"></circle><circle r="138.735" cx="222.3" cy="261.61" stroke="#f5f5dc" stroke-opacity="1" stroke-width="2"></circle><circle r="96.52" cx="707.14" cy="10.21" stroke="#f5f5dc" stroke-opacity="1" stroke-width="2"></circle><circle r="180.71" cx="7.87" cy="234.41" stroke="#f5f5dc" stroke-opacity="1" stroke-width="2"></circle><circle r="108.45" cx="21.83" cy="64.39" stroke="#f5f5dc" stroke-opacity="1" stroke-width="2"></circle><circle r="157.94" cx="969.36" cy="141.68" stroke="#f5f5dc" stroke-opacity="1" stroke-width="2"></circle><circle r="106.44" cx="1336.32" cy="480.33" stroke="#f5f5dc" stroke-opacity="1" stroke-width="2"></circle><circle r="46.69" cx="921.38" cy="2.54" stroke="#f5f5dc" stroke-opacity="1" stroke-width="2"></circle><circle r="156.495" cx="1065.59" cy="276.33" stroke="#f5f5dc" stroke-opacity="1" stroke-width="2"></circle><circle r="183.69" cx="900.06" cy="14.5" stroke="#f5f5dc" stroke-opacity="1" stroke-width="2"></circle><circle r="73.58" cx="164.3" cy="320.02" stroke="#f5f5dc" stroke-opacity="1" stroke-width="2"></circle><circle r="72.03" cx="19.97" cy="26.52" stroke="#f5f5dc" stroke-opacity="1" stroke-width="2"></circle><circle r="107.675" cx="423.38" cy="525.67" stroke="#f5f5dc" stroke-opacity="1" stroke-width="2"></circle><circle r="167.82" cx="710.24" cy="142.24" stroke="#f5f5dc" stroke-opacity="1" stroke-width="2"></circle><circle r="102.285" cx="685.02" cy="194.06" stroke="#f5f5dc" stroke-opacity="1" stroke-width="2"></circle><circle r="76.58" cx="949.42" cy="27.87" stroke="#f5f5dc" stroke-opacity="1" stroke-width="2"></circle><circle r="146.34" cx="399.92" cy="289.18" stroke="#f5f5dc" stroke-opacity="1" stroke-width="2"></circle><circle r="112.015" cx="608.92" cy="312.99" stroke="#f5f5dc" stroke-opacity="1" stroke-width="2"></circle><circle r="144.665" cx="78.09" cy="291.46" stroke="#f5f5dc" stroke-opacity="1" stroke-width="2"></circle><circle r="164.95" cx="1160.05" cy="180.81" stroke="#f5f5dc" stroke-opacity="1" stroke-width="2"></circle><circle r="96.78" cx="542.36" cy="18.24" stroke="#f5f5dc" stroke-opacity="1" stroke-width="2"></circle><circle r="184.94" cx="81.71" cy="9.1" stroke="#f5f5dc" stroke-opacity="1" stroke-width="2"></circle><circle r="92.815" cx="1139.45" cy="389.75" stroke="#f5f5dc" stroke-opacity="1" stroke-width="2"></circle><circle r="162.47" cx="1273.64" cy="353.77" stroke="#f5f5dc" stroke-opacity="1" stroke-width="2"></circle><circle r="122.465" cx="1138.22" cy="382.36" stroke="#f5f5dc" stroke-opacity="1" stroke-width="2"></circle><circle r="166.345" cx="703.01" cy="373.85" stroke="#f5f5dc" stroke-opacity="1" stroke-width="2"></circle></g><defs><clipPath id="SvgjsClipPath1003"><rect width="1440" height="560" x="0" y="0"></rect></clipPath></defs></svg>