<?xml version="1.0" encoding="UTF-8"?> <svg xmlns="http://www.w3.org/2000/svg" width="4319" height="164" viewBox="0 0 4319 164" fill="none"> <path d="M23.92 138.98L23.2095 139.684L23.2095 139.684L23.92 138.98ZM23.92 25.02L24.6271 25.7271L24.6305 25.7237L23.92 25.02ZM119.84 11.82L119.35 12.6916L119.356 12.6952L119.363 12.6987L119.84 11.82ZM147.56 38.22L148.062 39.0851L148.935 38.5789L148.42 37.7105L147.56 38.22ZM121.38 53.4L120.505 53.8841L120.999 54.7769L121.882 54.2651L121.38 53.4ZM105.1 37.34L104.61 38.2116L104.617 38.2155L104.624 38.2193L105.1 37.34ZM45.04 45.48L44.3273 44.7785L44.3218 44.7841L44.3164 44.7898L45.04 45.48ZM45.04 118.3L44.3164 118.99L44.3218 118.996L44.3273 119.002L45.04 118.3ZM105.1 126.66L105.576 127.539L105.583 127.536L105.1 126.66ZM121.38 110.6L121.882 109.735L120.992 109.219L120.501 110.122L121.38 110.6ZM147.56 125.78L148.42 126.289L148.935 125.421L148.062 124.915L147.56 125.78ZM119.84 152.4L120.322 153.276L120.326 153.274L119.84 152.4ZM81.34 161.08C58.5617 161.08 39.6834 153.474 24.6305 138.276L23.2095 139.684C38.6633 155.286 58.0649 163.08 81.34 163.08V161.08ZM24.6305 138.276C9.72107 123.222 2.26 104.487 2.26 82H0.26C0.26 104.98 7.90559 124.231 23.2095 139.684L24.6305 138.276ZM2.26 82C2.26 59.3644 9.72221 40.632 24.6271 25.7271L23.2129 24.3129C7.90446 39.6213 0.26 58.8756 0.26 82H2.26ZM24.6305 25.7237C39.6834 10.5261 58.5617 2.91999 81.34 2.91999V0.91999C58.0649 0.91999 38.6633 8.71392 23.2095 24.3163L24.6305 25.7237ZM81.34 2.91999C95.1079 2.91999 107.771 6.17878 119.35 12.6916L120.33 10.9484C108.442 4.2612 95.4388 0.91999 81.34 0.91999V2.91999ZM119.363 12.6987C131.091 19.0698 140.196 27.7452 146.7 38.7295L148.42 37.7105C141.724 26.4015 132.349 17.4769 120.317 10.9413L119.363 12.6987ZM147.058 37.3549L120.878 52.5349L121.882 54.2651L148.062 39.0851L147.058 37.3549ZM122.255 52.9159C118.348 45.8526 112.781 40.3634 105.576 36.4607L104.624 38.2193C111.499 41.9432 116.786 47.1607 120.505 53.8841L122.255 52.9159ZM105.59 36.4684C98.3874 32.4168 90.296 30.4 81.34 30.4V32.4C89.9841 32.4 97.7326 34.3432 104.61 38.2116L105.59 36.4684ZM81.34 30.4C66.1518 30.4 53.7815 35.1743 44.3273 44.7785L45.7527 46.1815C54.7786 37.0123 66.6082 32.4 81.34 32.4V30.4ZM44.3164 44.7898C35.0231 54.5328 30.4 66.9643 30.4 82H32.4C32.4 67.4091 36.8702 55.4939 45.7636 46.1702L44.3164 44.7898ZM30.4 82C30.4 96.8921 35.0249 109.249 44.3164 118.99L45.7636 117.61C36.8684 108.284 32.4 96.4413 32.4 82H30.4ZM44.3273 119.002C53.7815 128.606 66.1518 133.38 81.34 133.38V131.38C66.6082 131.38 54.7786 126.768 45.7527 117.598L44.3273 119.002ZM81.34 133.38C90.2895 133.38 98.3759 131.439 105.576 127.539L104.624 125.781C97.7441 129.507 89.9905 131.38 81.34 131.38V133.38ZM105.583 127.536C112.925 123.49 118.494 118.004 122.259 111.078L120.501 110.122C116.932 116.69 111.649 121.91 104.617 125.784L105.583 127.536ZM120.878 111.465L147.058 126.645L148.062 124.915L121.882 109.735L120.878 111.465ZM146.7 125.271C140.194 136.257 131.087 145.008 119.354 151.526L120.326 153.274C132.353 146.592 141.726 137.596 148.42 126.289L146.7 125.271ZM119.358 151.524C107.778 157.893 95.1119 161.08 81.34 161.08V163.08C95.4348 163.08 108.435 159.814 120.322 153.276L119.358 151.524ZM296.486 138.98L297.19 139.69L297.193 139.687L296.486 138.98ZM182.966 138.98L182.253 139.68L182.257 139.685L182.263 139.69L182.966 138.98ZM182.966 25.24L182.259 24.5329L182.259 24.5329L182.966 25.24ZM296.486 25.24L295.779 25.9471L295.783 25.9504L296.486 25.24ZM204.306 118.3L203.599 119.007L204.306 118.3ZM275.146 118.3L275.853 119.007L275.853 119.007L275.146 118.3ZM275.146 45.7L275.853 44.9929L275.853 44.9929L275.146 45.7ZM204.306 45.7L203.599 44.9929L203.599 44.9929L204.306 45.7ZM295.783 138.27C280.427 153.48 261.762 161.08 239.726 161.08V163.08C262.278 163.08 281.452 155.28 297.19 139.69L295.783 138.27ZM239.726 161.08C217.691 161.08 199.026 153.48 183.67 138.27L182.263 139.69C198 155.28 217.175 163.08 239.726 163.08V161.08ZM183.68 138.28C168.466 122.776 160.866 104.035 160.866 82H158.866C158.866 104.551 166.666 123.797 182.253 139.68L183.68 138.28ZM160.866 82C160.866 59.8162 168.467 41.1533 183.673 25.9471L182.259 24.5329C166.665 40.1267 158.866 59.3038 158.866 82H160.866ZM183.673 25.9471C199.03 10.5909 217.694 2.91999 239.726 2.91999V0.91999C217.172 0.91999 197.996 8.79576 182.259 24.5329L183.673 25.9471ZM239.726 2.91999C261.759 2.91999 280.423 10.5909 295.779 25.9471L297.193 24.5329C281.456 8.79576 262.281 0.91999 239.726 0.91999V2.91999ZM295.783 25.9504C311.134 41.1573 318.806 59.8192 318.806 82H320.806C320.806 59.3008 312.932 40.1226 297.19 24.5295L295.783 25.9504ZM318.806 82C318.806 104.181 311.134 122.918 295.779 138.273L297.193 139.687C312.932 123.949 320.806 104.699 320.806 82H318.806ZM203.599 119.007C213.188 128.596 225.255 133.38 239.726 133.38V131.38C225.744 131.38 214.198 126.778 205.013 117.593L203.599 119.007ZM239.726 133.38C254.197 133.38 266.265 128.596 275.853 119.007L274.439 117.593C265.254 126.778 253.709 131.38 239.726 131.38V133.38ZM275.853 119.007C285.592 109.269 290.446 96.9062 290.446 82H288.446C288.446 96.4271 283.768 108.265 274.439 117.593L275.853 119.007ZM290.446 82C290.446 67.0938 285.592 54.7312 275.853 44.9929L274.439 46.4071C283.768 55.7355 288.446 67.5729 288.446 82H290.446ZM275.853 44.9929C266.123 35.2629 254.058 30.4 239.726 30.4V32.4C253.554 32.4 265.102 37.0704 274.439 46.4071L275.853 44.9929ZM239.726 30.4C225.394 30.4 213.329 35.2629 203.599 44.9929L205.013 46.4071C214.35 37.0704 225.898 32.4 239.726 32.4V30.4ZM203.599 44.9929C193.861 54.7312 189.006 67.0938 189.006 82H191.006C191.006 67.5729 195.685 55.7355 205.013 46.4071L203.599 44.9929ZM189.006 82C189.006 96.9062 193.861 109.269 203.599 119.007L205.013 117.593C195.685 108.265 191.006 96.4271 191.006 82H189.006ZM373.705 4.99999H374.705V3.99999H373.705V4.99999ZM373.705 129.96H372.705V130.96H373.705V129.96ZM432.445 129.96H433.445V128.96H432.445V129.96ZM432.445 159V160H433.445V159H432.445ZM343.345 159H342.345V160H343.345V159ZM343.345 4.99999V3.99999H342.345V4.99999H343.345ZM372.705 4.99999V129.96H374.705V4.99999H372.705ZM373.705 130.96H432.445V128.96H373.705V130.96ZM431.445 129.96V159H433.445V129.96H431.445ZM432.445 158H343.345V160H432.445V158ZM344.345 159V4.99999H342.345V159H344.345ZM343.345 5.99999H373.705V3.99999H343.345V5.99999ZM482.252 4.99999H483.252V3.99999H482.252V4.99999ZM482.252 129.96H481.252V130.96H482.252V129.96ZM540.992 129.96H541.992V128.96H540.992V129.96ZM540.992 159V160H541.992V159H540.992ZM451.892 159H450.892V160H451.892V159ZM451.892 4.99999V3.99999H450.892V4.99999H451.892ZM481.252 4.99999V129.96H483.252V4.99999H481.252ZM482.252 130.96H540.992V128.96H482.252V130.96ZM539.992 129.96V159H541.992V129.96H539.992ZM540.992 158H451.892V160H540.992V158ZM452.892 159V4.99999H450.892V159H452.892ZM451.892 5.99999H482.252V3.99999H451.892V5.99999ZM653.5 79.14L652.874 78.3603L651.733 79.2763L653.001 80.0065L653.5 79.14ZM659.88 146.46L659.209 145.718L659.209 145.718L659.88 146.46ZM560.44 159H559.44V160H560.44V159ZM560.44 4.99999V3.99999H559.44V4.99999H560.44ZM654.38 17.32L655.05 16.5779L655.05 16.5779L654.38 17.32ZM590.8 33.38V32.38H589.8V33.38H590.8ZM590.8 67.26H589.8V68.26H590.8V67.26ZM632.82 62.42L632.113 61.7129L632.105 61.7211L632.096 61.7295L632.82 62.42ZM590.8 130.62H589.8V131.62H590.8V130.62ZM638.54 125.56L639.247 126.267L639.254 126.26L639.262 126.252L638.54 125.56ZM638.54 99.6L637.818 100.292L637.825 100.3L637.833 100.307L638.54 99.6ZM590.8 94.32V93.32H589.8V94.32H590.8ZM653.001 80.0065C666.181 87.5996 672.74 99.0008 672.74 114.34H674.74C674.74 98.2925 667.805 86.2271 653.999 78.2735L653.001 80.0065ZM672.74 114.34C672.74 127.126 668.228 137.558 659.209 145.718L660.551 147.202C670.011 138.642 674.74 127.661 674.74 114.34H672.74ZM659.209 145.718C650.169 153.898 639.048 158 625.78 158V160C639.499 160 651.111 155.742 660.551 147.202L659.209 145.718ZM625.78 158H560.44V160H625.78V158ZM561.44 159V4.99999H559.44V159H561.44ZM560.44 5.99999H621.16V3.99999H560.44V5.99999ZM621.16 5.99999C633.983 5.99999 644.813 10.0262 653.71 18.0621L655.05 16.5779C645.76 8.18709 634.443 3.99999 621.16 3.99999V5.99999ZM653.71 18.0621C662.589 26.0821 667.02 36.1506 667.02 48.34H669.02C669.02 35.5961 664.358 24.9846 655.05 16.5779L653.71 18.0621ZM667.02 48.34C667.02 60.8066 662.31 70.7828 652.874 78.3603L654.126 79.9197C664.05 71.9505 669.02 61.3933 669.02 48.34H667.02ZM621.16 32.38H590.8V34.38H621.16V32.38ZM589.8 33.38V67.26H591.8V33.38H589.8ZM590.8 68.26H621.16V66.26H590.8V68.26ZM621.16 68.26C626.11 68.26 630.264 66.5461 633.543 63.1105L632.096 61.7295C629.216 64.7472 625.596 66.26 621.16 66.26V68.26ZM633.527 63.1271C636.953 59.7006 638.66 55.4074 638.66 50.32H636.66C636.66 54.9126 635.14 58.686 632.113 61.7129L633.527 63.1271ZM638.66 50.32C638.66 45.2468 637.037 40.9588 633.763 37.5295L632.316 38.9105C635.203 41.9345 636.66 45.7132 636.66 50.32H638.66ZM633.763 37.5295C630.477 34.0872 626.247 32.38 621.16 32.38V34.38C625.752 34.38 629.442 35.8994 632.316 38.9105L633.763 37.5295ZM590.8 131.62H625.78V129.62H590.8V131.62ZM625.78 131.62C631.156 131.62 635.671 129.843 639.247 126.267L637.833 124.853C634.662 128.023 630.67 129.62 625.78 129.62V131.62ZM639.262 126.252C642.829 122.529 644.6 117.874 644.6 112.36H642.6C642.6 117.406 640.997 121.551 637.818 124.868L639.262 126.252ZM644.6 112.36C644.6 106.984 642.823 102.469 639.247 98.8929L637.833 100.307C641.003 103.478 642.6 107.47 642.6 112.36H644.6ZM639.262 98.9081C635.689 95.1799 631.17 93.32 625.78 93.32V95.32C630.657 95.32 634.644 96.9801 637.818 100.292L639.262 98.9081ZM625.78 93.32H590.8V95.32H625.78V93.32ZM589.8 94.32V130.62H591.8V94.32H589.8ZM776.313 4.99999V3.99999H775.706L775.426 4.53825L776.313 4.99999ZM810.633 4.99999L811.505 5.48996L812.342 3.99999H810.633V4.99999ZM757.833 98.94L756.961 98.45L756.833 98.6782V98.94H757.833ZM757.833 159V160H758.833V159H757.833ZM727.693 159H726.693V160H727.693V159ZM727.693 98.94H728.693V98.6792L728.566 98.4516L727.693 98.94ZM675.113 4.99999V3.99999H673.407L674.241 5.48841L675.113 4.99999ZM709.433 4.99999L710.32 4.53825L710.04 3.99999H709.433V4.99999ZM742.873 69.24L741.986 69.7017L742.873 71.4057L743.76 69.7017L742.873 69.24ZM776.313 5.99999H810.633V3.99999H776.313V5.99999ZM809.761 4.51002L756.961 98.45L758.705 99.43L811.505 5.48996L809.761 4.51002ZM756.833 98.94V159H758.833V98.94H756.833ZM757.833 158H727.693V160H757.833V158ZM728.693 159V98.94H726.693V159H728.693ZM728.566 98.4516L675.986 4.51157L674.241 5.48841L726.821 99.4284L728.566 98.4516ZM675.113 5.99999H709.433V3.99999H675.113V5.99999ZM708.546 5.46172L741.986 69.7017L743.76 68.7783L710.32 4.53825L708.546 5.46172ZM743.76 69.7017L777.2 5.46172L775.426 4.53825L741.986 68.7783L743.76 69.7017ZM900.414 138.98L899.703 139.684L899.703 139.684L900.414 138.98ZM900.414 25.02L901.121 25.7271L901.124 25.7237L900.414 25.02ZM996.334 11.82L995.844 12.6916L995.85 12.6952L995.856 12.6987L996.334 11.82ZM1024.05 38.22L1024.56 39.0851L1025.43 38.5789L1024.91 37.7105L1024.05 38.22ZM997.874 53.4L996.999 53.8841L997.493 54.7769L998.375 54.2651L997.874 53.4ZM981.594 37.34L981.104 38.2116L981.11 38.2155L981.117 38.2193L981.594 37.34ZM921.534 45.48L920.821 44.7785L920.816 44.7841L920.81 44.7898L921.534 45.48ZM921.534 118.3L920.81 118.99L920.816 118.996L920.821 119.002L921.534 118.3ZM981.594 126.66L982.07 127.539L982.076 127.536L981.594 126.66ZM997.874 110.6L998.375 109.735L997.486 109.219L996.995 110.122L997.874 110.6ZM1024.05 125.78L1024.91 126.289L1025.43 125.421L1024.56 124.915L1024.05 125.78ZM996.334 152.4L996.816 153.276L996.819 153.274L996.334 152.4ZM957.834 161.08C935.056 161.08 916.177 153.474 901.124 138.276L899.703 139.684C915.157 155.286 934.559 163.08 957.834 163.08V161.08ZM901.124 138.276C886.215 123.222 878.754 104.487 878.754 82H876.754C876.754 104.98 884.399 124.231 899.703 139.684L901.124 138.276ZM878.754 82C878.754 59.3644 886.216 40.632 901.121 25.7271L899.707 24.3129C884.398 39.6213 876.754 58.8756 876.754 82H878.754ZM901.124 25.7237C916.177 10.5261 935.056 2.91999 957.834 2.91999V0.91999C934.559 0.91999 915.157 8.71392 899.703 24.3163L901.124 25.7237ZM957.834 2.91999C971.602 2.91999 984.265 6.17878 995.844 12.6916L996.824 10.9484C984.936 4.2612 971.933 0.91999 957.834 0.91999V2.91999ZM995.856 12.6987C1007.58 19.0698 1016.69 27.7452 1023.19 38.7295L1024.91 37.7105C1018.22 26.4015 1008.84 17.4769 996.811 10.9413L995.856 12.6987ZM1023.55 37.3549L997.372 52.5349L998.375 54.2651L1024.56 39.0851L1023.55 37.3549ZM998.749 52.9159C994.841 45.8526 989.275 40.3634 982.07 36.4607L981.117 38.2193C987.992 41.9432 993.279 47.1607 996.999 53.8841L998.749 52.9159ZM982.084 36.4684C974.881 32.4168 966.79 30.4 957.834 30.4V32.4C966.478 32.4 974.226 34.3432 981.104 38.2116L982.084 36.4684ZM957.834 30.4C942.646 30.4 930.275 35.1743 920.821 44.7785L922.246 46.1815C931.272 37.0123 943.102 32.4 957.834 32.4V30.4ZM920.81 44.7898C911.517 54.5328 906.894 66.9643 906.894 82H908.894C908.894 67.4091 913.364 55.4939 922.257 46.1702L920.81 44.7898ZM906.894 82C906.894 96.8921 911.519 109.249 920.81 118.99L922.257 117.61C913.362 108.284 908.894 96.4413 908.894 82H906.894ZM920.821 119.002C930.275 128.606 942.646 133.38 957.834 133.38V131.38C943.102 131.38 931.272 126.768 922.246 117.598L920.821 119.002ZM957.834 133.38C966.783 133.38 974.87 131.439 982.07 127.539L981.117 125.781C974.238 129.507 966.484 131.38 957.834 131.38V133.38ZM982.076 127.536C989.418 123.49 994.988 118.004 998.752 111.078L996.995 110.122C993.426 116.69 988.142 121.91 981.111 125.784L982.076 127.536ZM997.372 111.465L1023.55 126.645L1024.56 124.915L998.375 109.735L997.372 111.465ZM1023.19 125.271C1016.69 136.257 1007.58 145.008 995.848 151.526L996.819 153.274C1008.85 146.592 1018.22 137.596 1024.91 126.289L1023.19 125.271ZM995.852 151.524C984.272 157.893 971.606 161.08 957.834 161.08V163.08C971.929 163.08 984.929 159.814 996.816 153.276L995.852 151.524ZM1172.98 138.98L1173.68 139.69L1173.69 139.687L1172.98 138.98ZM1059.46 138.98L1058.75 139.68L1058.75 139.685L1058.76 139.69L1059.46 138.98ZM1059.46 25.24L1058.75 24.5329L1058.75 24.5329L1059.46 25.24ZM1172.98 25.24L1172.27 25.9471L1172.28 25.9504L1172.98 25.24ZM1080.8 118.3L1080.09 119.007L1080.8 118.3ZM1151.64 118.3L1152.35 119.007L1152.35 119.007L1151.64 118.3ZM1151.64 45.7L1152.35 44.9929L1152.35 44.9929L1151.64 45.7ZM1080.8 45.7L1080.09 44.9929L1080.09 44.9929L1080.8 45.7ZM1172.28 138.27C1156.92 153.48 1138.26 161.08 1116.22 161.08V163.08C1138.77 163.08 1157.95 155.28 1173.68 139.69L1172.28 138.27ZM1116.22 161.08C1094.18 161.08 1075.52 153.48 1060.16 138.27L1058.76 139.69C1074.49 155.28 1093.67 163.08 1116.22 163.08V161.08ZM1060.17 138.28C1044.96 122.776 1037.36 104.035 1037.36 82H1035.36C1035.36 104.551 1043.16 123.797 1058.75 139.68L1060.17 138.28ZM1037.36 82C1037.36 59.8162 1044.96 41.1533 1060.17 25.9471L1058.75 24.5329C1043.16 40.1267 1035.36 59.3038 1035.36 82H1037.36ZM1060.17 25.9471C1075.52 10.5909 1094.19 2.91999 1116.22 2.91999V0.91999C1093.67 0.91999 1074.49 8.79576 1058.75 24.5329L1060.17 25.9471ZM1116.22 2.91999C1138.25 2.91999 1156.92 10.5909 1172.27 25.9471L1173.69 24.5329C1157.95 8.79576 1138.77 0.91999 1116.22 0.91999V2.91999ZM1172.28 25.9504C1187.63 41.1573 1195.3 59.8192 1195.3 82H1197.3C1197.3 59.3008 1189.43 40.1226 1173.68 24.5295L1172.28 25.9504ZM1195.3 82C1195.3 104.181 1187.63 122.918 1172.27 138.273L1173.69 139.687C1189.43 123.949 1197.3 104.699 1197.3 82H1195.3ZM1080.09 119.007C1089.68 128.596 1101.75 133.38 1116.22 133.38V131.38C1102.24 131.38 1090.69 126.778 1081.51 117.593L1080.09 119.007ZM1116.22 133.38C1130.69 133.38 1142.76 128.596 1152.35 119.007L1150.93 117.593C1141.75 126.778 1130.2 131.38 1116.22 131.38V133.38ZM1152.35 119.007C1162.09 109.269 1166.94 96.9062 1166.94 82H1164.94C1164.94 96.4271 1160.26 108.265 1150.93 117.593L1152.35 119.007ZM1166.94 82C1166.94 67.0938 1162.09 54.7312 1152.35 44.9929L1150.93 46.4071C1160.26 55.7355 1164.94 67.5729 1164.94 82H1166.94ZM1152.35 44.9929C1142.62 35.2629 1130.55 30.4 1116.22 30.4V32.4C1130.05 32.4 1141.6 37.0704 1150.93 46.4071L1152.35 44.9929ZM1116.22 30.4C1101.89 30.4 1089.82 35.2629 1080.09 44.9929L1081.51 46.4071C1090.84 37.0704 1102.39 32.4 1116.22 32.4V30.4ZM1080.09 44.9929C1070.35 54.7312 1065.5 67.0938 1065.5 82H1067.5C1067.5 67.5729 1072.18 55.7355 1081.51 46.4071L1080.09 44.9929ZM1065.5 82C1065.5 96.9062 1070.35 109.269 1080.09 119.007L1081.51 117.593C1072.18 108.265 1067.5 96.4271 1067.5 82H1065.5ZM1250.2 4.99999H1251.2V3.99999H1250.2V4.99999ZM1250.2 129.96H1249.2V130.96H1250.2V129.96ZM1308.94 129.96H1309.94V128.96H1308.94V129.96ZM1308.94 159V160H1309.94V159H1308.94ZM1219.84 159H1218.84V160H1219.84V159ZM1219.84 4.99999V3.99999H1218.84V4.99999H1219.84ZM1249.2 4.99999V129.96H1251.2V4.99999H1249.2ZM1250.2 130.96H1308.94V128.96H1250.2V130.96ZM1307.94 129.96V159H1309.94V129.96H1307.94ZM1308.94 158H1219.84V160H1308.94V158ZM1220.84 159V4.99999H1218.84V159H1220.84ZM1219.84 5.99999H1250.2V3.99999H1219.84V5.99999ZM1358.75 4.99999H1359.75V3.99999H1358.75V4.99999ZM1358.75 129.96H1357.75V130.96H1358.75V129.96ZM1417.49 129.96H1418.49V128.96H1417.49V129.96ZM1417.49 159V160H1418.49V159H1417.49ZM1328.39 159H1327.39V160H1328.39V159ZM1328.39 4.99999V3.99999H1327.39V4.99999H1328.39ZM1357.75 4.99999V129.96H1359.75V4.99999H1357.75ZM1358.75 130.96H1417.49V128.96H1358.75V130.96ZM1416.49 129.96V159H1418.49V129.96H1416.49ZM1417.49 158H1328.39V160H1417.49V158ZM1329.39 159V4.99999H1327.39V159H1329.39ZM1328.39 5.99999H1358.75V3.99999H1328.39V5.99999ZM1529.99 79.14L1529.37 78.3603L1528.23 79.2763L1529.49 80.0065L1529.99 79.14ZM1536.37 146.46L1535.7 145.718L1535.7 145.718L1536.37 146.46ZM1436.93 159H1435.93V160H1436.93V159ZM1436.93 4.99999V3.99999H1435.93V4.99999H1436.93ZM1530.87 17.32L1531.54 16.5779L1531.54 16.5779L1530.87 17.32ZM1467.29 33.38V32.38H1466.29V33.38H1467.29ZM1467.29 67.26H1466.29V68.26H1467.29V67.26ZM1509.31 62.42L1508.61 61.7129L1508.6 61.7211L1508.59 61.7295L1509.31 62.42ZM1467.29 130.62H1466.29V131.62H1467.29V130.62ZM1515.03 125.56L1515.74 126.267L1515.75 126.26L1515.76 126.252L1515.03 125.56ZM1515.03 99.6L1514.31 100.292L1514.32 100.3L1514.33 100.307L1515.03 99.6ZM1467.29 94.32V93.32H1466.29V94.32H1467.29ZM1529.49 80.0065C1542.67 87.5996 1549.23 99.0008 1549.23 114.34H1551.23C1551.23 98.2925 1544.3 86.2271 1530.49 78.2735L1529.49 80.0065ZM1549.23 114.34C1549.23 127.126 1544.72 137.558 1535.7 145.718L1537.04 147.202C1546.51 138.642 1551.23 127.661 1551.23 114.34H1549.23ZM1535.7 145.718C1526.66 153.898 1515.54 158 1502.27 158V160C1515.99 160 1527.6 155.742 1537.04 147.202L1535.7 145.718ZM1502.27 158H1436.93V160H1502.27V158ZM1437.93 159V4.99999H1435.93V159H1437.93ZM1436.93 5.99999H1497.65V3.99999H1436.93V5.99999ZM1497.65 5.99999C1510.48 5.99999 1521.31 10.0262 1530.2 18.0621L1531.54 16.5779C1522.25 8.18709 1510.94 3.99999 1497.65 3.99999V5.99999ZM1530.2 18.0621C1539.08 26.0821 1543.51 36.1506 1543.51 48.34H1545.51C1545.51 35.5961 1540.85 24.9846 1531.54 16.5779L1530.2 18.0621ZM1543.51 48.34C1543.51 60.8066 1538.8 70.7828 1529.37 78.3603L1530.62 79.9197C1540.54 71.9505 1545.51 61.3933 1545.51 48.34H1543.51ZM1497.65 32.38H1467.29V34.38H1497.65V32.38ZM1466.29 33.38V67.26H1468.29V33.38H1466.29ZM1467.29 68.26H1497.65V66.26H1467.29V68.26ZM1497.65 68.26C1502.6 68.26 1506.76 66.5461 1510.04 63.1105L1508.59 61.7295C1505.71 64.7472 1502.09 66.26 1497.65 66.26V68.26ZM1510.02 63.1271C1513.45 59.7006 1515.15 55.4074 1515.15 50.32H1513.15C1513.15 54.9126 1511.63 58.686 1508.61 61.7129L1510.02 63.1271ZM1515.15 50.32C1515.15 45.2468 1513.53 40.9588 1510.26 37.5295L1508.81 38.9105C1511.7 41.9345 1513.15 45.7132 1513.15 50.32H1515.15ZM1510.26 37.5295C1506.97 34.0872 1502.74 32.38 1497.65 32.38V34.38C1502.25 34.38 1505.94 35.8994 1508.81 38.9105L1510.26 37.5295ZM1467.29 131.62H1502.27V129.62H1467.29V131.62ZM1502.27 131.62C1507.65 131.62 1512.16 129.843 1515.74 126.267L1514.33 124.853C1511.16 128.023 1507.16 129.62 1502.27 129.62V131.62ZM1515.76 126.252C1519.32 122.529 1521.09 117.874 1521.09 112.36H1519.09C1519.09 117.406 1517.49 121.551 1514.31 124.868L1515.76 126.252ZM1521.09 112.36C1521.09 106.984 1519.32 102.469 1515.74 98.8929L1514.33 100.307C1517.5 103.478 1519.09 107.47 1519.09 112.36H1521.09ZM1515.76 98.9081C1512.18 95.1799 1507.66 93.32 1502.27 93.32V95.32C1507.15 95.32 1511.14 96.9801 1514.31 100.292L1515.76 98.9081ZM1502.27 93.32H1467.29V95.32H1502.27V93.32ZM1466.29 94.32V130.62H1468.29V94.32H1466.29ZM1652.81 4.99999V3.99999H1652.2L1651.92 4.53825L1652.81 4.99999ZM1687.13 4.99999L1688 5.48996L1688.84 3.99999H1687.13V4.99999ZM1634.33 98.94L1633.46 98.45L1633.33 98.6782V98.94H1634.33ZM1634.33 159V160H1635.33V159H1634.33ZM1604.19 159H1603.19V160H1604.19V159ZM1604.19 98.94H1605.19V98.6792L1605.06 98.4516L1604.19 98.94ZM1551.61 4.99999V3.99999H1549.9L1550.73 5.48841L1551.61 4.99999ZM1585.93 4.99999L1586.81 4.53825L1586.53 3.99999H1585.93V4.99999ZM1619.37 69.24L1618.48 69.7017L1619.37 71.4057L1620.25 69.7017L1619.37 69.24ZM1652.81 5.99999H1687.13V3.99999H1652.81V5.99999ZM1686.26 4.51002L1633.46 98.45L1635.2 99.43L1688 5.48996L1686.26 4.51002ZM1633.33 98.94V159H1635.33V98.94H1633.33ZM1634.33 158H1604.19V160H1634.33V158ZM1605.19 159V98.94H1603.19V159H1605.19ZM1605.06 98.4516L1552.48 4.51157L1550.73 5.48841L1603.31 99.4284L1605.06 98.4516ZM1551.61 5.99999H1585.93V3.99999H1551.61V5.99999ZM1585.04 5.46172L1618.48 69.7017L1620.25 68.7783L1586.81 4.53825L1585.04 5.46172ZM1620.25 69.7017L1653.69 5.46172L1651.92 4.53825L1618.48 68.7783L1620.25 69.7017ZM1776.91 138.98L1776.2 139.684L1776.2 139.684L1776.91 138.98ZM1776.91 25.02L1777.61 25.7271L1777.62 25.7237L1776.91 25.02ZM1872.83 11.82L1872.34 12.6916L1872.34 12.6952L1872.35 12.6987L1872.83 11.82ZM1900.55 38.22L1901.05 39.0851L1901.92 38.5789L1901.41 37.7105L1900.55 38.22ZM1874.37 53.4L1873.49 53.8841L1873.99 54.7769L1874.87 54.2651L1874.37 53.4ZM1858.09 37.34L1857.6 38.2116L1857.6 38.2155L1857.61 38.2193L1858.09 37.34ZM1798.03 45.48L1797.31 44.7785L1797.31 44.7841L1797.3 44.7898L1798.03 45.48ZM1798.03 118.3L1797.3 118.99L1797.31 118.996L1797.31 119.002L1798.03 118.3ZM1858.09 126.66L1858.56 127.539L1858.57 127.536L1858.09 126.66ZM1874.37 110.6L1874.87 109.735L1873.98 109.219L1873.49 110.122L1874.37 110.6ZM1900.55 125.78L1901.41 126.289L1901.92 125.421L1901.05 124.915L1900.55 125.78ZM1872.83 152.4L1873.31 153.276L1873.31 153.274L1872.83 152.4ZM1834.33 161.08C1811.55 161.08 1792.67 153.474 1777.62 138.276L1776.2 139.684C1791.65 155.286 1811.05 163.08 1834.33 163.08V161.08ZM1777.62 138.276C1762.71 123.222 1755.25 104.487 1755.25 82H1753.25C1753.25 104.98 1760.89 124.231 1776.2 139.684L1777.62 138.276ZM1755.25 82C1755.25 59.3644 1762.71 40.632 1777.61 25.7271L1776.2 24.3129C1760.89 39.6213 1753.25 58.8756 1753.25 82H1755.25ZM1777.62 25.7237C1792.67 10.5261 1811.55 2.91999 1834.33 2.91999V0.91999C1811.05 0.91999 1791.65 8.71392 1776.2 24.3163L1777.62 25.7237ZM1834.33 2.91999C1848.1 2.91999 1860.76 6.17878 1872.34 12.6916L1873.32 10.9484C1861.43 4.2612 1848.43 0.91999 1834.33 0.91999V2.91999ZM1872.35 12.6987C1884.08 19.0698 1893.18 27.7452 1899.69 38.7295L1901.41 37.7105C1894.71 26.4015 1885.34 17.4769 1873.3 10.9413L1872.35 12.6987ZM1900.05 37.3549L1873.87 52.5349L1874.87 54.2651L1901.05 39.0851L1900.05 37.3549ZM1875.24 52.9159C1871.34 45.8526 1865.77 40.3634 1858.56 36.4607L1857.61 38.2193C1864.49 41.9432 1869.77 47.1607 1873.49 53.8841L1875.24 52.9159ZM1858.58 36.4684C1851.37 32.4168 1843.28 30.4 1834.33 30.4V32.4C1842.97 32.4 1850.72 34.3432 1857.6 38.2116L1858.58 36.4684ZM1834.33 30.4C1819.14 30.4 1806.77 35.1743 1797.31 44.7785L1798.74 46.1815C1807.77 37.0123 1819.6 32.4 1834.33 32.4V30.4ZM1797.3 44.7898C1788.01 54.5328 1783.39 66.9643 1783.39 82H1785.39C1785.39 67.4091 1789.86 55.4939 1798.75 46.1702L1797.3 44.7898ZM1783.39 82C1783.39 96.8921 1788.01 109.249 1797.3 118.99L1798.75 117.61C1789.86 108.284 1785.39 96.4413 1785.39 82H1783.39ZM1797.31 119.002C1806.77 128.606 1819.14 133.38 1834.33 133.38V131.38C1819.6 131.38 1807.77 126.768 1798.74 117.598L1797.31 119.002ZM1834.33 133.38C1843.28 133.38 1851.36 131.439 1858.56 127.539L1857.61 125.781C1850.73 129.507 1842.98 131.38 1834.33 131.38V133.38ZM1858.57 127.536C1865.91 123.49 1871.48 118.004 1875.25 111.078L1873.49 110.122C1869.92 116.69 1864.64 121.91 1857.6 125.784L1858.57 127.536ZM1873.87 111.465L1900.05 126.645L1901.05 124.915L1874.87 109.735L1873.87 111.465ZM1899.69 125.271C1893.18 136.257 1884.07 145.008 1872.34 151.526L1873.31 153.274C1885.34 146.592 1894.71 137.596 1901.41 126.289L1899.69 125.271ZM1872.35 151.524C1860.77 157.893 1848.1 161.08 1834.33 161.08V163.08C1848.42 163.08 1861.42 159.814 1873.31 153.276L1872.35 151.524ZM2049.47 138.98L2050.18 139.69L2050.18 139.687L2049.47 138.98ZM1935.95 138.98L1935.24 139.68L1935.24 139.685L1935.25 139.69L1935.95 138.98ZM1935.95 25.24L1935.25 24.5329L1935.25 24.5329L1935.95 25.24ZM2049.47 25.24L2048.77 25.9471L2048.77 25.9504L2049.47 25.24ZM1957.29 118.3L1956.59 119.007L1957.29 118.3ZM2028.13 118.3L2028.84 119.007L2028.84 119.007L2028.13 118.3ZM2028.13 45.7L2028.84 44.9929L2028.84 44.9929L2028.13 45.7ZM1957.29 45.7L1956.59 44.9929L1956.59 44.9929L1957.29 45.7ZM2048.77 138.27C2033.41 153.48 2014.75 161.08 1992.71 161.08V163.08C2015.27 163.08 2034.44 155.28 2050.18 139.69L2048.77 138.27ZM1992.71 161.08C1970.68 161.08 1952.01 153.48 1936.66 138.27L1935.25 139.69C1950.99 155.28 1970.16 163.08 1992.71 163.08V161.08ZM1936.67 138.28C1921.45 122.776 1913.85 104.035 1913.85 82H1911.85C1911.85 104.551 1919.65 123.797 1935.24 139.68L1936.67 138.28ZM1913.85 82C1913.85 59.8162 1921.45 41.1533 1936.66 25.9471L1935.25 24.5329C1919.65 40.1267 1911.85 59.3038 1911.85 82H1913.85ZM1936.66 25.9471C1952.02 10.5909 1970.68 2.91999 1992.71 2.91999V0.91999C1970.16 0.91999 1950.98 8.79576 1935.25 24.5329L1936.66 25.9471ZM1992.71 2.91999C2014.75 2.91999 2033.41 10.5909 2048.77 25.9471L2050.18 24.5329C2034.44 8.79576 2015.27 0.91999 1992.71 0.91999V2.91999ZM2048.77 25.9504C2064.12 41.1573 2071.79 59.8192 2071.79 82H2073.79C2073.79 59.3008 2065.92 40.1226 2050.18 24.5295L2048.77 25.9504ZM2071.79 82C2071.79 104.181 2064.12 122.918 2048.77 138.273L2050.18 139.687C2065.92 123.949 2073.79 104.699 2073.79 82H2071.79ZM1956.59 119.007C1966.18 128.596 1978.24 133.38 1992.71 133.38V131.38C1978.73 131.38 1967.19 126.778 1958 117.593L1956.59 119.007ZM1992.71 133.38C2007.18 133.38 2019.25 128.596 2028.84 119.007L2027.43 117.593C2018.24 126.778 2006.7 131.38 1992.71 131.38V133.38ZM2028.84 119.007C2038.58 109.269 2043.43 96.9062 2043.43 82H2041.43C2041.43 96.4271 2036.76 108.265 2027.43 117.593L2028.84 119.007ZM2043.43 82C2043.43 67.0938 2038.58 54.7312 2028.84 44.9929L2027.43 46.4071C2036.76 55.7355 2041.43 67.5729 2041.43 82H2043.43ZM2028.84 44.9929C2019.11 35.2629 2007.05 30.4 1992.71 30.4V32.4C2006.54 32.4 2018.09 37.0704 2027.43 46.4071L2028.84 44.9929ZM1992.71 30.4C1978.38 30.4 1966.32 35.2629 1956.59 44.9929L1958 46.4071C1967.34 37.0704 1978.89 32.4 1992.71 32.4V30.4ZM1956.59 44.9929C1946.85 54.7312 1941.99 67.0938 1941.99 82H1943.99C1943.99 67.5729 1948.67 55.7355 1958 46.4071L1956.59 44.9929ZM1941.99 82C1941.99 96.9062 1946.85 109.269 1956.59 119.007L1958 117.593C1948.67 108.265 1943.99 96.4271 1943.99 82H1941.99ZM2126.69 4.99999H2127.69V3.99999H2126.69V4.99999ZM2126.69 129.96H2125.69V130.96H2126.69V129.96ZM2185.43 129.96H2186.43V128.96H2185.43V129.96ZM2185.43 159V160H2186.43V159H2185.43ZM2096.33 159H2095.33V160H2096.33V159ZM2096.33 4.99999V3.99999H2095.33V4.99999H2096.33ZM2125.69 4.99999V129.96H2127.69V4.99999H2125.69ZM2126.69 130.96H2185.43V128.96H2126.69V130.96ZM2184.43 129.96V159H2186.43V129.96H2184.43ZM2185.43 158H2096.33V160H2185.43V158ZM2097.33 159V4.99999H2095.33V159H2097.33ZM2096.33 5.99999H2126.69V3.99999H2096.33V5.99999ZM2235.24 4.99999H2236.24V3.99999H2235.24V4.99999ZM2235.24 129.96H2234.24V130.96H2235.24V129.96ZM2293.98 129.96H2294.98V128.96H2293.98V129.96ZM2293.98 159V160H2294.98V159H2293.98ZM2204.88 159H2203.88V160H2204.88V159ZM2204.88 4.99999V3.99999H2203.88V4.99999H2204.88ZM2234.24 4.99999V129.96H2236.24V4.99999H2234.24ZM2235.24 130.96H2293.98V128.96H2235.24V130.96ZM2292.98 129.96V159H2294.98V129.96H2292.98ZM2293.98 158H2204.88V160H2293.98V158ZM2205.88 159V4.99999H2203.88V159H2205.88ZM2204.88 5.99999H2235.24V3.99999H2204.88V5.99999ZM2406.49 79.14L2405.86 78.3603L2404.72 79.2763L2405.99 80.0065L2406.49 79.14ZM2412.87 146.46L2412.2 145.718L2412.2 145.718L2412.87 146.46ZM2313.43 159H2312.43V160H2313.43V159ZM2313.43 4.99999V3.99999H2312.43V4.99999H2313.43ZM2407.37 17.32L2408.04 16.5779L2408.04 16.5779L2407.37 17.32ZM2343.79 33.38V32.38H2342.79V33.38H2343.79ZM2343.79 67.26H2342.79V68.26H2343.79V67.26ZM2385.81 62.42L2385.1 61.7129L2385.09 61.7211L2385.08 61.7295L2385.81 62.42ZM2343.79 130.62H2342.79V131.62H2343.79V130.62ZM2391.53 125.56L2392.23 126.267L2392.24 126.26L2392.25 126.252L2391.53 125.56ZM2391.53 99.6L2390.81 100.292L2390.81 100.3L2390.82 100.307L2391.53 99.6ZM2343.79 94.32V93.32H2342.79V94.32H2343.79ZM2405.99 80.0065C2419.17 87.5996 2425.73 99.0008 2425.73 114.34H2427.73C2427.73 98.2925 2420.79 86.2271 2406.99 78.2735L2405.99 80.0065ZM2425.73 114.34C2425.73 127.126 2421.22 137.558 2412.2 145.718L2413.54 147.202C2423 138.642 2427.73 127.661 2427.73 114.34H2425.73ZM2412.2 145.718C2403.16 153.898 2392.04 158 2378.77 158V160C2392.49 160 2404.1 155.742 2413.54 147.202L2412.2 145.718ZM2378.77 158H2313.43V160H2378.77V158ZM2314.43 159V4.99999H2312.43V159H2314.43ZM2313.43 5.99999H2374.15V3.99999H2313.43V5.99999ZM2374.15 5.99999C2386.97 5.99999 2397.8 10.0262 2406.7 18.0621L2408.04 16.5779C2398.75 8.18709 2387.43 3.99999 2374.15 3.99999V5.99999ZM2406.7 18.0621C2415.58 26.0821 2420.01 36.1506 2420.01 48.34H2422.01C2422.01 35.5961 2417.35 24.9846 2408.04 16.5779L2406.7 18.0621ZM2420.01 48.34C2420.01 60.8066 2415.3 70.7828 2405.86 78.3603L2407.11 79.9197C2417.04 71.9505 2422.01 61.3933 2422.01 48.34H2420.01ZM2374.15 32.38H2343.79V34.38H2374.15V32.38ZM2342.79 33.38V67.26H2344.79V33.38H2342.79ZM2343.79 68.26H2374.15V66.26H2343.79V68.26ZM2374.15 68.26C2379.1 68.26 2383.25 66.5461 2386.53 63.1105L2385.08 61.7295C2382.2 64.7472 2378.58 66.26 2374.15 66.26V68.26ZM2386.51 63.1271C2389.94 59.7006 2391.65 55.4074 2391.65 50.32H2389.65C2389.65 54.9126 2388.13 58.686 2385.1 61.7129L2386.51 63.1271ZM2391.65 50.32C2391.65 45.2468 2390.02 40.9588 2386.75 37.5295L2385.3 38.9105C2388.19 41.9345 2389.65 45.7132 2389.65 50.32H2391.65ZM2386.75 37.5295C2383.46 34.0872 2379.23 32.38 2374.15 32.38V34.38C2378.74 34.38 2382.43 35.8994 2385.3 38.9105L2386.75 37.5295ZM2343.79 131.62H2378.77V129.62H2343.79V131.62ZM2378.77 131.62C2384.14 131.62 2388.66 129.843 2392.23 126.267L2390.82 124.853C2387.65 128.023 2383.66 129.62 2378.77 129.62V131.62ZM2392.25 126.252C2395.82 122.529 2397.59 117.874 2397.59 112.36H2395.59C2395.59 117.406 2393.98 121.551 2390.81 124.868L2392.25 126.252ZM2397.59 112.36C2397.59 106.984 2395.81 102.469 2392.23 98.8929L2390.82 100.307C2393.99 103.478 2395.59 107.47 2395.59 112.36H2397.59ZM2392.25 98.9081C2388.68 95.1799 2384.16 93.32 2378.77 93.32V95.32C2383.64 95.32 2387.63 96.9801 2390.81 100.292L2392.25 98.9081ZM2378.77 93.32H2343.79V95.32H2378.77V93.32ZM2342.79 94.32V130.62H2344.79V94.32H2342.79ZM2529.3 4.99999V3.99999H2528.69L2528.41 4.53825L2529.3 4.99999ZM2563.62 4.99999L2564.49 5.48996L2565.33 3.99999H2563.62V4.99999ZM2510.82 98.94L2509.95 98.45L2509.82 98.6782V98.94H2510.82ZM2510.82 159V160H2511.82V159H2510.82ZM2480.68 159H2479.68V160H2480.68V159ZM2480.68 98.94H2481.68V98.6792L2481.55 98.4516L2480.68 98.94ZM2428.1 4.99999V3.99999H2426.39L2427.23 5.48841L2428.1 4.99999ZM2462.42 4.99999L2463.31 4.53825L2463.03 3.99999H2462.42V4.99999ZM2495.86 69.24L2494.97 69.7017L2495.86 71.4057L2496.75 69.7017L2495.86 69.24ZM2529.3 5.99999H2563.62V3.99999H2529.3V5.99999ZM2562.75 4.51002L2509.95 98.45L2511.69 99.43L2564.49 5.48996L2562.75 4.51002ZM2509.82 98.94V159H2511.82V98.94H2509.82ZM2510.82 158H2480.68V160H2510.82V158ZM2481.68 159V98.94H2479.68V159H2481.68ZM2481.55 98.4516L2428.97 4.51157L2427.23 5.48841L2479.81 99.4284L2481.55 98.4516ZM2428.1 5.99999H2462.42V3.99999H2428.1V5.99999ZM2461.53 5.46172L2494.97 69.7017L2496.75 68.7783L2463.31 4.53825L2461.53 5.46172ZM2496.75 69.7017L2530.19 5.46172L2528.41 4.53825L2494.97 68.7783L2496.75 69.7017ZM2653.4 138.98L2652.69 139.684L2652.69 139.684L2653.4 138.98ZM2653.4 25.02L2654.11 25.7271L2654.11 25.7237L2653.4 25.02ZM2749.32 11.82L2748.83 12.6916L2748.84 12.6952L2748.84 12.6987L2749.32 11.82ZM2777.04 38.22L2777.54 39.0851L2778.42 38.5789L2777.9 37.7105L2777.04 38.22ZM2750.86 53.4L2749.99 53.8841L2750.48 54.7769L2751.36 54.2651L2750.86 53.4ZM2734.58 37.34L2734.09 38.2116L2734.1 38.2155L2734.1 38.2193L2734.58 37.34ZM2674.52 45.48L2673.81 44.7785L2673.8 44.7841L2673.8 44.7898L2674.52 45.48ZM2674.52 118.3L2673.8 118.99L2673.8 118.996L2673.81 119.002L2674.52 118.3ZM2734.58 126.66L2735.06 127.539L2735.06 127.536L2734.58 126.66ZM2750.86 110.6L2751.36 109.735L2750.47 109.219L2749.98 110.122L2750.86 110.6ZM2777.04 125.78L2777.9 126.289L2778.42 125.421L2777.54 124.915L2777.04 125.78ZM2749.32 152.4L2749.8 153.276L2749.81 153.274L2749.32 152.4ZM2710.82 161.08C2688.04 161.08 2669.16 153.474 2654.11 138.276L2652.69 139.684C2668.14 155.286 2687.55 163.08 2710.82 163.08V161.08ZM2654.11 138.276C2639.2 123.222 2631.74 104.487 2631.74 82H2629.74C2629.74 104.98 2637.39 124.231 2652.69 139.684L2654.11 138.276ZM2631.74 82C2631.74 59.3644 2639.2 40.632 2654.11 25.7271L2652.69 24.3129C2637.39 39.6213 2629.74 58.8756 2629.74 82H2631.74ZM2654.11 25.7237C2669.16 10.5261 2688.04 2.91999 2710.82 2.91999V0.91999C2687.55 0.91999 2668.14 8.71392 2652.69 24.3163L2654.11 25.7237ZM2710.82 2.91999C2724.59 2.91999 2737.25 6.17878 2748.83 12.6916L2749.81 10.9484C2737.92 4.2612 2724.92 0.91999 2710.82 0.91999V2.91999ZM2748.84 12.6987C2760.57 19.0698 2769.68 27.7452 2776.18 38.7295L2777.9 37.7105C2771.21 26.4015 2761.83 17.4769 2749.8 10.9413L2748.84 12.6987ZM2776.54 37.3549L2750.36 52.5349L2751.36 54.2651L2777.54 39.0851L2776.54 37.3549ZM2751.74 52.9159C2747.83 45.8526 2742.26 40.3634 2735.06 36.4607L2734.1 38.2193C2740.98 41.9432 2746.27 47.1607 2749.99 53.8841L2751.74 52.9159ZM2735.07 36.4684C2727.87 32.4168 2719.78 30.4 2710.82 30.4V32.4C2719.47 32.4 2727.21 34.3432 2734.09 38.2116L2735.07 36.4684ZM2710.82 30.4C2695.63 30.4 2683.26 35.1743 2673.81 44.7785L2675.23 46.1815C2684.26 37.0123 2696.09 32.4 2710.82 32.4V30.4ZM2673.8 44.7898C2664.5 54.5328 2659.88 66.9643 2659.88 82H2661.88C2661.88 67.4091 2666.35 55.4939 2675.24 46.1702L2673.8 44.7898ZM2659.88 82C2659.88 96.8921 2664.51 109.249 2673.8 118.99L2675.24 117.61C2666.35 108.284 2661.88 96.4413 2661.88 82H2659.88ZM2673.81 119.002C2683.26 128.606 2695.63 133.38 2710.82 133.38V131.38C2696.09 131.38 2684.26 126.768 2675.23 117.598L2673.81 119.002ZM2710.82 133.38C2719.77 133.38 2727.86 131.439 2735.06 127.539L2734.1 125.781C2727.23 129.507 2719.47 131.38 2710.82 131.38V133.38ZM2735.06 127.536C2742.41 123.49 2747.98 118.004 2751.74 111.078L2749.98 110.122C2746.41 116.69 2741.13 121.91 2734.1 125.784L2735.06 127.536ZM2750.36 111.465L2776.54 126.645L2777.54 124.915L2751.36 109.735L2750.36 111.465ZM2776.18 125.271C2769.68 136.257 2760.57 145.008 2748.84 151.526L2749.81 153.274C2761.83 146.592 2771.21 137.596 2777.9 126.289L2776.18 125.271ZM2748.84 151.524C2737.26 157.893 2724.59 161.08 2710.82 161.08V163.08C2724.92 163.08 2737.92 159.814 2749.8 153.276L2748.84 151.524ZM2925.97 138.98L2926.67 139.69L2926.67 139.687L2925.97 138.98ZM2812.45 138.98L2811.73 139.68L2811.74 139.685L2811.74 139.69L2812.45 138.98ZM2812.45 25.24L2811.74 24.5329L2811.74 24.5329L2812.45 25.24ZM2925.97 25.24L2925.26 25.9471L2925.26 25.9504L2925.97 25.24ZM2833.79 118.3L2833.08 119.007L2833.79 118.3ZM2904.63 118.3L2905.33 119.007L2905.33 119.007L2904.63 118.3ZM2904.63 45.7L2905.33 44.9929L2905.33 44.9929L2904.63 45.7ZM2833.79 45.7L2833.08 44.9929L2833.08 44.9929L2833.79 45.7ZM2925.26 138.27C2909.91 153.48 2891.24 161.08 2869.21 161.08V163.08C2891.76 163.08 2910.93 155.28 2926.67 139.69L2925.26 138.27ZM2869.21 161.08C2847.17 161.08 2828.51 153.48 2813.15 138.27L2811.74 139.69C2827.48 155.28 2846.66 163.08 2869.21 163.08V161.08ZM2813.16 138.28C2797.95 122.776 2790.35 104.035 2790.35 82H2788.35C2788.35 104.551 2796.15 123.797 2811.73 139.68L2813.16 138.28ZM2790.35 82C2790.35 59.8162 2797.95 41.1533 2813.15 25.9471L2811.74 24.5329C2796.15 40.1267 2788.35 59.3038 2788.35 82H2790.35ZM2813.15 25.9471C2828.51 10.5909 2847.18 2.91999 2869.21 2.91999V0.91999C2846.65 0.91999 2827.48 8.79576 2811.74 24.5329L2813.15 25.9471ZM2869.21 2.91999C2891.24 2.91999 2909.9 10.5909 2925.26 25.9471L2926.67 24.5329C2910.94 8.79576 2891.76 0.91999 2869.21 0.91999V2.91999ZM2925.26 25.9504C2940.62 41.1573 2948.29 59.8192 2948.29 82H2950.29C2950.29 59.3008 2942.41 40.1226 2926.67 24.5295L2925.26 25.9504ZM2948.29 82C2948.29 104.181 2940.62 122.918 2925.26 138.273L2926.67 139.687C2942.41 123.949 2950.29 104.699 2950.29 82H2948.29ZM2833.08 119.007C2842.67 128.596 2854.74 133.38 2869.21 133.38V131.38C2855.22 131.38 2843.68 126.778 2834.49 117.593L2833.08 119.007ZM2869.21 133.38C2883.68 133.38 2895.75 128.596 2905.33 119.007L2903.92 117.593C2894.74 126.778 2883.19 131.38 2869.21 131.38V133.38ZM2905.33 119.007C2915.07 109.269 2919.93 96.9062 2919.93 82H2917.93C2917.93 96.4271 2913.25 108.265 2903.92 117.593L2905.33 119.007ZM2919.93 82C2919.93 67.0938 2915.07 54.7312 2905.33 44.9929L2903.92 46.4071C2913.25 55.7355 2917.93 67.5729 2917.93 82H2919.93ZM2905.33 44.9929C2895.6 35.2629 2883.54 30.4 2869.21 30.4V32.4C2883.04 32.4 2894.58 37.0704 2903.92 46.4071L2905.33 44.9929ZM2869.21 30.4C2854.88 30.4 2842.81 35.2629 2833.08 44.9929L2834.49 46.4071C2843.83 37.0704 2855.38 32.4 2869.21 32.4V30.4ZM2833.08 44.9929C2823.34 54.7312 2818.49 67.0938 2818.49 82H2820.49C2820.49 67.5729 2825.17 55.7355 2834.49 46.4071L2833.08 44.9929ZM2818.49 82C2818.49 96.9062 2823.34 109.269 2833.08 119.007L2834.49 117.593C2825.17 108.265 2820.49 96.4271 2820.49 82H2818.49ZM3003.19 4.99999H3004.19V3.99999H3003.19V4.99999ZM3003.19 129.96H3002.19V130.96H3003.19V129.96ZM3061.93 129.96H3062.93V128.96H3061.93V129.96ZM3061.93 159V160H3062.93V159H3061.93ZM2972.83 159H2971.83V160H2972.83V159ZM2972.83 4.99999V3.99999H2971.83V4.99999H2972.83ZM3002.19 4.99999V129.96H3004.19V4.99999H3002.19ZM3003.19 130.96H3061.93V128.96H3003.19V130.96ZM3060.93 129.96V159H3062.93V129.96H3060.93ZM3061.93 158H2972.83V160H3061.93V158ZM2973.83 159V4.99999H2971.83V159H2973.83ZM2972.83 5.99999H3003.19V3.99999H2972.83V5.99999ZM3111.73 4.99999H3112.73V3.99999H3111.73V4.99999ZM3111.73 129.96H3110.73V130.96H3111.73V129.96ZM3170.47 129.96H3171.47V128.96H3170.47V129.96ZM3170.47 159V160H3171.47V159H3170.47ZM3081.37 159H3080.37V160H3081.37V159ZM3081.37 4.99999V3.99999H3080.37V4.99999H3081.37ZM3110.73 4.99999V129.96H3112.73V4.99999H3110.73ZM3111.73 130.96H3170.47V128.96H3111.73V130.96ZM3169.47 129.96V159H3171.47V129.96H3169.47ZM3170.47 158H3081.37V160H3170.47V158ZM3082.37 159V4.99999H3080.37V159H3082.37ZM3081.37 5.99999H3111.73V3.99999H3081.37V5.99999ZM3282.98 79.14L3282.35 78.3603L3281.21 79.2763L3282.48 80.0065L3282.98 79.14ZM3289.36 146.46L3288.69 145.718L3288.69 145.718L3289.36 146.46ZM3189.92 159H3188.92V160H3189.92V159ZM3189.92 4.99999V3.99999H3188.92V4.99999H3189.92ZM3283.86 17.32L3284.53 16.5779L3284.53 16.5779L3283.86 17.32ZM3220.28 33.38V32.38H3219.28V33.38H3220.28ZM3220.28 67.26H3219.28V68.26H3220.28V67.26ZM3262.3 62.42L3261.59 61.7129L3261.59 61.7211L3261.58 61.7295L3262.3 62.42ZM3220.28 130.62H3219.28V131.62H3220.28V130.62ZM3268.02 125.56L3268.73 126.267L3268.74 126.26L3268.74 126.252L3268.02 125.56ZM3268.02 99.6L3267.3 100.292L3267.31 100.3L3267.31 100.307L3268.02 99.6ZM3220.28 94.32V93.32H3219.28V94.32H3220.28ZM3282.48 80.0065C3295.66 87.5996 3302.22 99.0008 3302.22 114.34H3304.22C3304.22 98.2925 3297.29 86.2271 3283.48 78.2735L3282.48 80.0065ZM3302.22 114.34C3302.22 127.126 3297.71 137.558 3288.69 145.718L3290.03 147.202C3299.49 138.642 3304.22 127.661 3304.22 114.34H3302.22ZM3288.69 145.718C3279.65 153.898 3268.53 158 3255.26 158V160C3268.98 160 3280.59 155.742 3290.03 147.202L3288.69 145.718ZM3255.26 158H3189.92V160H3255.26V158ZM3190.92 159V4.99999H3188.92V159H3190.92ZM3189.92 5.99999H3250.64V3.99999H3189.92V5.99999ZM3250.64 5.99999C3263.46 5.99999 3274.29 10.0262 3283.19 18.0621L3284.53 16.5779C3275.24 8.18709 3263.92 3.99999 3250.64 3.99999V5.99999ZM3283.19 18.0621C3292.07 26.0821 3296.5 36.1506 3296.5 48.34H3298.5C3298.5 35.5961 3293.84 24.9846 3284.53 16.5779L3283.19 18.0621ZM3296.5 48.34C3296.5 60.8066 3291.79 70.7828 3282.35 78.3603L3283.61 79.9197C3293.53 71.9505 3298.5 61.3933 3298.5 48.34H3296.5ZM3250.64 32.38H3220.28V34.38H3250.64V32.38ZM3219.28 33.38V67.26H3221.28V33.38H3219.28ZM3220.28 68.26H3250.64V66.26H3220.28V68.26ZM3250.64 68.26C3255.59 68.26 3259.75 66.5461 3263.02 63.1105L3261.58 61.7295C3258.7 64.7472 3255.08 66.26 3250.64 66.26V68.26ZM3263.01 63.1271C3266.43 59.7006 3268.14 55.4074 3268.14 50.32H3266.14C3266.14 54.9126 3264.62 58.686 3261.59 61.7129L3263.01 63.1271ZM3268.14 50.32C3268.14 45.2468 3266.52 40.9588 3263.24 37.5295L3261.8 38.9105C3264.68 41.9345 3266.14 45.7132 3266.14 50.32H3268.14ZM3263.24 37.5295C3259.96 34.0872 3255.73 32.38 3250.64 32.38V34.38C3255.23 34.38 3258.92 35.8994 3261.8 38.9105L3263.24 37.5295ZM3220.28 131.62H3255.26V129.62H3220.28V131.62ZM3255.26 131.62C3260.64 131.62 3265.15 129.843 3268.73 126.267L3267.31 124.853C3264.14 128.023 3260.15 129.62 3255.26 129.62V131.62ZM3268.74 126.252C3272.31 122.529 3274.08 117.874 3274.08 112.36H3272.08C3272.08 117.406 3270.48 121.551 3267.3 124.868L3268.74 126.252ZM3274.08 112.36C3274.08 106.984 3272.3 102.469 3268.73 98.8929L3267.31 100.307C3270.48 103.478 3272.08 107.47 3272.08 112.36H3274.08ZM3268.74 98.9081C3265.17 95.1799 3260.65 93.32 3255.26 93.32V95.32C3260.14 95.32 3264.13 96.9801 3267.3 100.292L3268.74 98.9081ZM3255.26 93.32H3220.28V95.32H3255.26V93.32ZM3219.28 94.32V130.62H3221.28V94.32H3219.28ZM3405.79 4.99999V3.99999H3405.19L3404.91 4.53825L3405.79 4.99999ZM3440.11 4.99999L3440.99 5.48996L3441.82 3.99999H3440.11V4.99999ZM3387.31 98.94L3386.44 98.45L3386.31 98.6782V98.94H3387.31ZM3387.31 159V160H3388.31V159H3387.31ZM3357.17 159H3356.17V160H3357.17V159ZM3357.17 98.94H3358.17V98.6792L3358.05 98.4516L3357.17 98.94ZM3304.59 4.99999V3.99999H3302.89L3303.72 5.48841L3304.59 4.99999ZM3338.91 4.99999L3339.8 4.53825L3339.52 3.99999H3338.91V4.99999ZM3372.35 69.24L3371.47 69.7017L3372.35 71.4057L3373.24 69.7017L3372.35 69.24ZM3405.79 5.99999H3440.11V3.99999H3405.79V5.99999ZM3439.24 4.51002L3386.44 98.45L3388.19 99.43L3440.99 5.48996L3439.24 4.51002ZM3386.31 98.94V159H3388.31V98.94H3386.31ZM3387.31 158H3357.17V160H3387.31V158ZM3358.17 159V98.94H3356.17V159H3358.17ZM3358.05 98.4516L3305.47 4.51157L3303.72 5.48841L3356.3 99.4284L3358.05 98.4516ZM3304.59 5.99999H3338.91V3.99999H3304.59V5.99999ZM3338.03 5.46172L3371.47 69.7017L3373.24 68.7783L3339.8 4.53825L3338.03 5.46172ZM3373.24 69.7017L3406.68 5.46172L3404.91 4.53825L3371.47 68.7783L3373.24 69.7017ZM3529.9 138.98L3529.18 139.684L3529.18 139.684L3529.9 138.98ZM3529.9 25.02L3530.6 25.7271L3530.61 25.7237L3529.9 25.02ZM3625.82 11.82L3625.32 12.6916L3625.33 12.6952L3625.34 12.6987L3625.82 11.82ZM3653.54 38.22L3654.04 39.0851L3654.91 38.5789L3654.4 37.7105L3653.54 38.22ZM3627.36 53.4L3626.48 53.8841L3626.97 54.7769L3627.86 54.2651L3627.36 53.4ZM3611.08 37.34L3610.58 38.2116L3610.59 38.2155L3610.6 38.2193L3611.08 37.34ZM3551.02 45.48L3550.3 44.7785L3550.3 44.7841L3550.29 44.7898L3551.02 45.48ZM3551.02 118.3L3550.29 118.99L3550.3 118.996L3550.3 119.002L3551.02 118.3ZM3611.08 126.66L3611.55 127.539L3611.56 127.536L3611.08 126.66ZM3627.36 110.6L3627.86 109.735L3626.97 109.219L3626.48 110.122L3627.36 110.6ZM3653.54 125.78L3654.4 126.289L3654.91 125.421L3654.04 124.915L3653.54 125.78ZM3625.82 152.4L3626.3 153.276L3626.3 153.274L3625.82 152.4ZM3587.32 161.08C3564.54 161.08 3545.66 153.474 3530.61 138.276L3529.18 139.684C3544.64 155.286 3564.04 163.08 3587.32 163.08V161.08ZM3530.61 138.276C3515.7 123.222 3508.24 104.487 3508.24 82H3506.24C3506.24 104.98 3513.88 124.231 3529.18 139.684L3530.61 138.276ZM3508.24 82C3508.24 59.3644 3515.7 40.632 3530.6 25.7271L3529.19 24.3129C3513.88 39.6213 3506.24 58.8756 3506.24 82H3508.24ZM3530.61 25.7237C3545.66 10.5261 3564.54 2.91999 3587.32 2.91999V0.91999C3564.04 0.91999 3544.64 8.71392 3529.18 24.3163L3530.61 25.7237ZM3587.32 2.91999C3601.08 2.91999 3613.75 6.17878 3625.32 12.6916L3626.31 10.9484C3614.42 4.2612 3601.41 0.91999 3587.32 0.91999V2.91999ZM3625.34 12.6987C3637.07 19.0698 3646.17 27.7452 3652.67 38.7295L3654.4 37.7105C3647.7 26.4015 3638.32 17.4769 3626.29 10.9413L3625.34 12.6987ZM3653.03 37.3549L3626.85 52.5349L3627.86 54.2651L3654.04 39.0851L3653.03 37.3549ZM3628.23 52.9159C3624.32 45.8526 3618.76 40.3634 3611.55 36.4607L3610.6 38.2193C3617.47 41.9432 3622.76 47.1607 3626.48 53.8841L3628.23 52.9159ZM3611.57 36.4684C3604.36 32.4168 3596.27 30.4 3587.32 30.4V32.4C3595.96 32.4 3603.71 34.3432 3610.58 38.2116L3611.57 36.4684ZM3587.32 30.4C3572.13 30.4 3559.76 35.1743 3550.3 44.7785L3551.73 46.1815C3560.75 37.0123 3572.58 32.4 3587.32 32.4V30.4ZM3550.29 44.7898C3541 54.5328 3536.38 66.9643 3536.38 82H3538.38C3538.38 67.4091 3542.85 55.4939 3551.74 46.1702L3550.29 44.7898ZM3536.38 82C3536.38 96.8921 3541 109.249 3550.29 118.99L3551.74 117.61C3542.84 108.284 3538.38 96.4413 3538.38 82H3536.38ZM3550.3 119.002C3559.76 128.606 3572.13 133.38 3587.32 133.38V131.38C3572.58 131.38 3560.75 126.768 3551.73 117.598L3550.3 119.002ZM3587.32 133.38C3596.26 133.38 3604.35 131.439 3611.55 127.539L3610.6 125.781C3603.72 129.507 3595.97 131.38 3587.32 131.38V133.38ZM3611.56 127.536C3618.9 123.49 3624.47 118.004 3628.23 111.078L3626.48 110.122C3622.91 116.69 3617.62 121.91 3610.59 125.784L3611.56 127.536ZM3626.85 111.465L3653.03 126.645L3654.04 124.915L3627.86 109.735L3626.85 111.465ZM3652.67 125.271C3646.17 136.257 3637.06 145.008 3625.33 151.526L3626.3 153.274C3638.33 146.592 3647.7 137.596 3654.4 126.289L3652.67 125.271ZM3625.33 151.524C3613.75 157.893 3601.09 161.08 3587.32 161.08V163.08C3601.41 163.08 3614.41 159.814 3626.3 153.276L3625.33 151.524ZM3802.46 138.98L3803.17 139.69L3803.17 139.687L3802.46 138.98ZM3688.94 138.98L3688.23 139.68L3688.23 139.685L3688.24 139.69L3688.94 138.98ZM3688.94 25.24L3688.23 24.5329L3688.23 24.5329L3688.94 25.24ZM3802.46 25.24L3801.75 25.9471L3801.76 25.9504L3802.46 25.24ZM3710.28 118.3L3709.57 119.007L3710.28 118.3ZM3781.12 118.3L3781.83 119.007L3781.83 119.007L3781.12 118.3ZM3781.12 45.7L3781.83 44.9929L3781.83 44.9929L3781.12 45.7ZM3710.28 45.7L3709.57 44.9929L3709.57 44.9929L3710.28 45.7ZM3801.76 138.27C3786.4 153.48 3767.74 161.08 3745.7 161.08V163.08C3768.25 163.08 3787.43 155.28 3803.17 139.69L3801.76 138.27ZM3745.7 161.08C3723.67 161.08 3705 153.48 3689.65 138.27L3688.24 139.69C3703.98 155.28 3723.15 163.08 3745.7 163.08V161.08ZM3689.66 138.28C3674.44 122.776 3666.84 104.035 3666.84 82H3664.84C3664.84 104.551 3672.64 123.797 3688.23 139.68L3689.66 138.28ZM3666.84 82C3666.84 59.8162 3674.44 41.1533 3689.65 25.9471L3688.23 24.5329C3672.64 40.1267 3664.84 59.3038 3664.84 82H3666.84ZM3689.65 25.9471C3705 10.5909 3723.67 2.91999 3745.7 2.91999V0.91999C3723.15 0.91999 3703.97 8.79576 3688.23 24.5329L3689.65 25.9471ZM3745.7 2.91999C3767.73 2.91999 3786.4 10.5909 3801.75 25.9471L3803.17 24.5329C3787.43 8.79576 3768.26 0.91999 3745.7 0.91999V2.91999ZM3801.76 25.9504C3817.11 41.1573 3824.78 59.8192 3824.78 82H3826.78C3826.78 59.3008 3818.91 40.1226 3803.17 24.5295L3801.76 25.9504ZM3824.78 82C3824.78 104.181 3817.11 122.918 3801.75 138.273L3803.17 139.687C3818.91 123.949 3826.78 104.699 3826.78 82H3824.78ZM3709.57 119.007C3719.16 128.596 3731.23 133.38 3745.7 133.38V131.38C3731.72 131.38 3720.17 126.778 3710.99 117.593L3709.57 119.007ZM3745.7 133.38C3760.17 133.38 3772.24 128.596 3781.83 119.007L3780.41 117.593C3771.23 126.778 3759.68 131.38 3745.7 131.38V133.38ZM3781.83 119.007C3791.57 109.269 3796.42 96.9062 3796.42 82H3794.42C3794.42 96.4271 3789.74 108.265 3780.41 117.593L3781.83 119.007ZM3796.42 82C3796.42 67.0938 3791.57 54.7312 3781.83 44.9929L3780.41 46.4071C3789.74 55.7355 3794.42 67.5729 3794.42 82H3796.42ZM3781.83 44.9929C3772.1 35.2629 3760.03 30.4 3745.7 30.4V32.4C3759.53 32.4 3771.08 37.0704 3780.41 46.4071L3781.83 44.9929ZM3745.7 30.4C3731.37 30.4 3719.3 35.2629 3709.57 44.9929L3710.99 46.4071C3720.33 37.0704 3731.87 32.4 3745.7 32.4V30.4ZM3709.57 44.9929C3699.84 54.7312 3694.98 67.0938 3694.98 82H3696.98C3696.98 67.5729 3701.66 55.7355 3710.99 46.4071L3709.57 44.9929ZM3694.98 82C3694.98 96.9062 3699.84 109.269 3709.57 119.007L3710.99 117.593C3701.66 108.265 3696.98 96.4271 3696.98 82H3694.98ZM3879.68 4.99999H3880.68V3.99999H3879.68V4.99999ZM3879.68 129.96H3878.68V130.96H3879.68V129.96ZM3938.42 129.96H3939.42V128.96H3938.42V129.96ZM3938.42 159V160H3939.42V159H3938.42ZM3849.32 159H3848.32V160H3849.32V159ZM3849.32 4.99999V3.99999H3848.32V4.99999H3849.32ZM3878.68 4.99999V129.96H3880.68V4.99999H3878.68ZM3879.68 130.96H3938.42V128.96H3879.68V130.96ZM3937.42 129.96V159H3939.42V129.96H3937.42ZM3938.42 158H3849.32V160H3938.42V158ZM3850.32 159V4.99999H3848.32V159H3850.32ZM3849.32 5.99999H3879.68V3.99999H3849.32V5.99999ZM3988.23 4.99999H3989.23V3.99999H3988.23V4.99999ZM3988.23 129.96H3987.23V130.96H3988.23V129.96ZM4046.97 129.96H4047.97V128.96H4046.97V129.96ZM4046.97 159V160H4047.97V159H4046.97ZM3957.87 159H3956.87V160H3957.87V159ZM3957.87 4.99999V3.99999H3956.87V4.99999H3957.87ZM3987.23 4.99999V129.96H3989.23V4.99999H3987.23ZM3988.23 130.96H4046.97V128.96H3988.23V130.96ZM4045.97 129.96V159H4047.97V129.96H4045.97ZM4046.97 158H3957.87V160H4046.97V158ZM3958.87 159V4.99999H3956.87V159H3958.87ZM3957.87 5.99999H3988.23V3.99999H3957.87V5.99999ZM4159.47 79.14L4158.85 78.3603L4157.71 79.2763L4158.98 80.0065L4159.47 79.14ZM4165.85 146.46L4165.18 145.718L4165.18 145.718L4165.85 146.46ZM4066.41 159H4065.41V160H4066.41V159ZM4066.41 4.99999V3.99999H4065.41V4.99999H4066.41ZM4160.35 17.32L4161.03 16.5779L4161.03 16.5779L4160.35 17.32ZM4096.77 33.38V32.38H4095.77V33.38H4096.77ZM4096.77 67.26H4095.77V68.26H4096.77V67.26ZM4138.79 62.42L4138.09 61.7129L4138.08 61.7211L4138.07 61.7295L4138.79 62.42ZM4096.77 130.62H4095.77V131.62H4096.77V130.62ZM4144.51 125.56L4145.22 126.267L4145.23 126.26L4145.24 126.252L4144.51 125.56ZM4144.51 99.6L4143.79 100.292L4143.8 100.3L4143.81 100.307L4144.51 99.6ZM4096.77 94.32V93.32H4095.77V94.32H4096.77ZM4158.98 80.0065C4172.16 87.5996 4178.71 99.0008 4178.71 114.34H4180.71C4180.71 98.2925 4173.78 86.2271 4159.97 78.2735L4158.98 80.0065ZM4178.71 114.34C4178.71 127.126 4174.2 137.558 4165.18 145.718L4166.53 147.202C4175.99 138.642 4180.71 127.661 4180.71 114.34H4178.71ZM4165.18 145.718C4156.14 153.898 4145.02 158 4131.75 158V160C4145.47 160 4157.09 155.742 4166.53 147.202L4165.18 145.718ZM4131.75 158H4066.41V160H4131.75V158ZM4067.41 159V4.99999H4065.41V159H4067.41ZM4066.41 5.99999H4127.13V3.99999H4066.41V5.99999ZM4127.13 5.99999C4139.96 5.99999 4150.79 10.0262 4159.68 18.0621L4161.03 16.5779C4151.74 8.18709 4140.42 3.99999 4127.13 3.99999V5.99999ZM4159.68 18.0621C4168.56 26.0821 4172.99 36.1506 4172.99 48.34H4174.99C4174.99 35.5961 4170.33 24.9846 4161.03 16.5779L4159.68 18.0621ZM4172.99 48.34C4172.99 60.8066 4168.28 70.7828 4158.85 78.3603L4160.1 79.9197C4170.02 71.9505 4174.99 61.3933 4174.99 48.34H4172.99ZM4127.13 32.38H4096.77V34.38H4127.13V32.38ZM4095.77 33.38V67.26H4097.77V33.38H4095.77ZM4096.77 68.26H4127.13V66.26H4096.77V68.26ZM4127.13 68.26C4132.09 68.26 4136.24 66.5461 4139.52 63.1105L4138.07 61.7295C4135.19 64.7472 4131.57 66.26 4127.13 66.26V68.26ZM4139.5 63.1271C4142.93 59.7006 4144.63 55.4074 4144.63 50.32H4142.63C4142.63 54.9126 4141.11 58.686 4138.09 61.7129L4139.5 63.1271ZM4144.63 50.32C4144.63 45.2468 4143.01 40.9588 4139.74 37.5295L4138.29 38.9105C4141.18 41.9345 4142.63 45.7132 4142.63 50.32H4144.63ZM4139.74 37.5295C4136.45 34.0872 4132.22 32.38 4127.13 32.38V34.38C4131.73 34.38 4135.42 35.8994 4138.29 38.9105L4139.74 37.5295ZM4096.77 131.62H4131.75V129.62H4096.77V131.62ZM4131.75 131.62C4137.13 131.62 4141.65 129.843 4145.22 126.267L4143.81 124.853C4140.64 128.023 4136.65 129.62 4131.75 129.62V131.62ZM4145.24 126.252C4148.8 122.529 4150.57 117.874 4150.57 112.36H4148.57C4148.57 117.406 4146.97 121.551 4143.79 124.868L4145.24 126.252ZM4150.57 112.36C4150.57 106.984 4148.8 102.469 4145.22 98.8929L4143.81 100.307C4146.98 103.478 4148.57 107.47 4148.57 112.36H4150.57ZM4145.24 98.9081C4141.66 95.1799 4137.14 93.32 4131.75 93.32V95.32C4136.63 95.32 4140.62 96.9801 4143.79 100.292L4145.24 98.9081ZM4131.75 93.32H4096.77V95.32H4131.75V93.32ZM4095.77 94.32V130.62H4097.77V94.32H4095.77ZM4282.29 4.99999V3.99999H4281.68L4281.4 4.53825L4282.29 4.99999ZM4316.61 4.99999L4317.48 5.48996L4318.32 3.99999H4316.61V4.99999ZM4263.81 98.94L4262.94 98.45L4262.81 98.6782V98.94H4263.81ZM4263.81 159V160H4264.81V159H4263.81ZM4233.67 159H4232.67V160H4233.67V159ZM4233.67 98.94H4234.67V98.6792L4234.54 98.4516L4233.67 98.94ZM4181.09 4.99999V3.99999H4179.38L4180.22 5.48841L4181.09 4.99999ZM4215.41 4.99999L4216.3 4.53825L4216.02 3.99999H4215.41V4.99999ZM4248.85 69.24L4247.96 69.7017L4248.85 71.4057L4249.74 69.7017L4248.85 69.24ZM4282.29 5.99999H4316.61V3.99999H4282.29V5.99999ZM4315.74 4.51002L4262.94 98.45L4264.68 99.43L4317.48 5.48996L4315.74 4.51002ZM4262.81 98.94V159H4264.81V98.94H4262.81ZM4263.81 158H4233.67V160H4263.81V158ZM4234.67 159V98.94H4232.67V159H4234.67ZM4234.54 98.4516L4181.96 4.51157L4180.22 5.48841L4232.8 99.4284L4234.54 98.4516ZM4181.09 5.99999H4215.41V3.99999H4181.09V5.99999ZM4214.52 5.46172L4247.96 69.7017L4249.74 68.7783L4216.3 4.53825L4214.52 5.46172ZM4249.74 69.7017L4283.18 5.46172L4281.4 4.53825L4247.96 68.7783L4249.74 69.7017Z" fill="white"></path> </svg> 